<svg xmlns="http://www.w3.org/2000/svg" width="120" height="24.473" viewBox="0 0 120 24.473">
  <g id="logo_white" transform="translate(-9093 -15943.999)">
    <path id="Path_11_2_" d="M9136.1,15970.768V15953.5h4.638l3.354,12.061h.07l3.354-12.061h4.638v17.268H9149.3v-13.627h-.072l-3.854,13.627h-2.5l-3.854-13.627h0v13.627Z" transform="translate(-12.054 -2.521)" fill="#fff"/>
    <rect id="Rectangle_1067_2_" width="2.997" height="2.783" transform="translate(9144.018 15950.841)" fill="#fff"/>
    <rect id="Rectangle_1068_2_" width="2.997" height="12.415" transform="translate(9144.018 15955.759)" fill="#fff"/>
    <rect id="Rectangle_1069_2_" width="2.997" height="17.267" transform="translate(9150.71 15950.978)" fill="#fff"/>
    <rect id="Rectangle_1070_2_" width="2.997" height="17.267" transform="translate(9157.401 15950.978)" fill="#fff"/>
    <rect id="Rectangle_1071_2_" width="2.997" height="2.783" transform="translate(9164.166 15950.841)" fill="#fff"/>
    <rect id="Rectangle_1072_2_" width="2.997" height="12.415" transform="translate(9164.166 15955.759)" fill="#fff"/>
    <path id="Path_12_2_" d="M9200.7,15972.6v-12.488h2.711v1.357a5.059,5.059,0,0,1,3.711-1.57,3.372,3.372,0,0,1,3.067,1.783,5.37,5.37,0,0,1,4.281-1.783c1.284,0,3.068.783,3.068,3.711v8.918h-3v-8.633c0-1-.428-1.57-1.5-1.57a4.583,4.583,0,0,0-2.5,1.357v8.918h-3v-8.705c0-1-.428-1.57-1.5-1.57a4.581,4.581,0,0,0-2.5,1.357v8.918Z" transform="translate(-30.115 -4.354)" fill="#fff"/>
    <path id="Path_13_2_" d="M9234.521,15972.6l-.215-1.07a6.919,6.919,0,0,1-3.854,1.285,3.116,3.116,0,0,1-3.354-2.855v-.428c0-2.854,2.283-4.281,7.136-4.852v-1.07a1.583,1.583,0,0,0-1.642-1.5h-.143a3.232,3.232,0,0,0-2.711,1.5l-1.927-1.426a5.779,5.779,0,0,1,4.638-2.285c3.354.072,4.78,1.285,4.78,4.994v5.852a7.547,7.547,0,0,0,.215,1.783h-2.925Zm-.286-5.994c-2,.357-4.139.785-4.139,2.568a1.343,1.343,0,0,0,1.213,1.428h.215a5.334,5.334,0,0,0,2.711-1.285Z" transform="translate(-37.434 -4.355)" fill="#fff"/>
    <path id="Path_14_2_" d="M9245.4,15972.6v-12.488h2.712v1.357a6.4,6.4,0,0,1,3.853-1.57c2.5,0,3.712,1.641,3.712,4.139v8.49h-3v-8.061c0-1.641-.5-2.213-1.5-2.213a3.8,3.8,0,0,0-2.784,1.285v8.988h-3Z" transform="translate(-42.677 -4.355)" fill="#fff"/>
    <rect id="Rectangle_1073_2_" width="6.778" height="6.778" transform="translate(9110.268 15944)" fill="#fff"/>
    <path id="Path_15_2_" d="M9110.268,15961.412v-10.577l6.136,6.188a2.41,2.41,0,0,1,.643,1.511v9.711H9093V15944h9.632a2.377,2.377,0,0,1,1.5.647l6.136,6.187h-10.489v10.577h10.49Z" fill="#fff"/>
  </g>
</svg>
